<?xml version="1.0" standalone="no"?>
<svg xmlns="http://www.w3.org/2000/svg" version="1.1" width="250" height="250">
	<title>QR Code</title>
	<desc>sc.niveri.de/help</desc>
	<g id="elements">
		<path style="fill:rgb(255, 188, 22)" d="M 0,0 l 10,0 0,10 -10,0 z M 10,0 l 10,0 0,10 -10,0 z M 20,0 l 10,0 0,10 -10,0 z M 30,0 l 10,0 0,10 -10,0 z M 40,0 l 10,0 0,10 -10,0 z M 50,0 l 10,0 0,10 -10,0 z M 60,0 l 10,0 0,10 -10,0 z M 90,0 l 10,0 0,10 -10,0 z M 140,0 l 10,0 0,10 -10,0 z M 160,0 l 10,0 0,10 -10,0 z M 180,0 l 10,0 0,10 -10,0 z M 190,0 l 10,0 0,10 -10,0 z M 200,0 l 10,0 0,10 -10,0 z M 210,0 l 10,0 0,10 -10,0 z M 220,0 l 10,0 0,10 -10,0 z M 230,0 l 10,0 0,10 -10,0 z M 240,0 l 10,0 0,10 -10,0 z M 0,10 l 10,0 0,10 -10,0 z M 60,10 l 10,0 0,10 -10,0 z M 80,10 l 10,0 0,10 -10,0 z M 90,10 l 10,0 0,10 -10,0 z M 110,10 l 10,0 0,10 -10,0 z M 120,10 l 10,0 0,10 -10,0 z M 150,10 l 10,0 0,10 -10,0 z M 180,10 l 10,0 0,10 -10,0 z M 240,10 l 10,0 0,10 -10,0 z M 0,20 l 10,0 0,10 -10,0 z M 20,20 l 10,0 0,10 -10,0 z M 30,20 l 10,0 0,10 -10,0 z M 40,20 l 10,0 0,10 -10,0 z M 60,20 l 10,0 0,10 -10,0 z M 90,20 l 10,0 0,10 -10,0 z M 100,20 l 10,0 0,10 -10,0 z M 110,20 l 10,0 0,10 -10,0 z M 150,20 l 10,0 0,10 -10,0 z M 160,20 l 10,0 0,10 -10,0 z M 180,20 l 10,0 0,10 -10,0 z M 200,20 l 10,0 0,10 -10,0 z M 210,20 l 10,0 0,10 -10,0 z M 220,20 l 10,0 0,10 -10,0 z M 240,20 l 10,0 0,10 -10,0 z M 0,30 l 10,0 0,10 -10,0 z M 20,30 l 10,0 0,10 -10,0 z M 30,30 l 10,0 0,10 -10,0 z M 40,30 l 10,0 0,10 -10,0 z M 60,30 l 10,0 0,10 -10,0 z M 80,30 l 10,0 0,10 -10,0 z M 90,30 l 10,0 0,10 -10,0 z M 110,30 l 10,0 0,10 -10,0 z M 180,30 l 10,0 0,10 -10,0 z M 200,30 l 10,0 0,10 -10,0 z M 210,30 l 10,0 0,10 -10,0 z M 220,30 l 10,0 0,10 -10,0 z M 240,30 l 10,0 0,10 -10,0 z M 0,40 l 10,0 0,10 -10,0 z M 20,40 l 10,0 0,10 -10,0 z M 30,40 l 10,0 0,10 -10,0 z M 40,40 l 10,0 0,10 -10,0 z M 60,40 l 10,0 0,10 -10,0 z M 100,40 l 10,0 0,10 -10,0 z M 120,40 l 10,0 0,10 -10,0 z M 130,40 l 10,0 0,10 -10,0 z M 160,40 l 10,0 0,10 -10,0 z M 180,40 l 10,0 0,10 -10,0 z M 200,40 l 10,0 0,10 -10,0 z M 210,40 l 10,0 0,10 -10,0 z M 220,40 l 10,0 0,10 -10,0 z M 240,40 l 10,0 0,10 -10,0 z M 0,50 l 10,0 0,10 -10,0 z M 60,50 l 10,0 0,10 -10,0 z M 80,50 l 10,0 0,10 -10,0 z M 100,50 l 10,0 0,10 -10,0 z M 130,50 l 10,0 0,10 -10,0 z M 140,50 l 10,0 0,10 -10,0 z M 150,50 l 10,0 0,10 -10,0 z M 160,50 l 10,0 0,10 -10,0 z M 180,50 l 10,0 0,10 -10,0 z M 240,50 l 10,0 0,10 -10,0 z M 0,60 l 10,0 0,10 -10,0 z M 10,60 l 10,0 0,10 -10,0 z M 20,60 l 10,0 0,10 -10,0 z M 30,60 l 10,0 0,10 -10,0 z M 40,60 l 10,0 0,10 -10,0 z M 50,60 l 10,0 0,10 -10,0 z M 60,60 l 10,0 0,10 -10,0 z M 80,60 l 10,0 0,10 -10,0 z M 100,60 l 10,0 0,10 -10,0 z M 120,60 l 10,0 0,10 -10,0 z M 140,60 l 10,0 0,10 -10,0 z M 160,60 l 10,0 0,10 -10,0 z M 180,60 l 10,0 0,10 -10,0 z M 190,60 l 10,0 0,10 -10,0 z M 200,60 l 10,0 0,10 -10,0 z M 210,60 l 10,0 0,10 -10,0 z M 220,60 l 10,0 0,10 -10,0 z M 230,60 l 10,0 0,10 -10,0 z M 240,60 l 10,0 0,10 -10,0 z M 120,70 l 10,0 0,10 -10,0 z M 130,70 l 10,0 0,10 -10,0 z M 150,70 l 10,0 0,10 -10,0 z M 160,70 l 10,0 0,10 -10,0 z M 0,80 l 10,0 0,10 -10,0 z M 10,80 l 10,0 0,10 -10,0 z M 20,80 l 10,0 0,10 -10,0 z M 30,80 l 10,0 0,10 -10,0 z M 40,80 l 10,0 0,10 -10,0 z M 60,80 l 10,0 0,10 -10,0 z M 70,80 l 10,0 0,10 -10,0 z M 80,80 l 10,0 0,10 -10,0 z M 90,80 l 10,0 0,10 -10,0 z M 100,80 l 10,0 0,10 -10,0 z M 120,80 l 10,0 0,10 -10,0 z M 140,80 l 10,0 0,10 -10,0 z M 150,80 l 10,0 0,10 -10,0 z M 170,80 l 10,0 0,10 -10,0 z M 190,80 l 10,0 0,10 -10,0 z M 210,80 l 10,0 0,10 -10,0 z M 230,80 l 10,0 0,10 -10,0 z M 0,90 l 10,0 0,10 -10,0 z M 10,90 l 10,0 0,10 -10,0 z M 20,90 l 10,0 0,10 -10,0 z M 30,90 l 10,0 0,10 -10,0 z M 80,90 l 10,0 0,10 -10,0 z M 90,90 l 10,0 0,10 -10,0 z M 160,90 l 10,0 0,10 -10,0 z M 220,90 l 10,0 0,10 -10,0 z M 30,100 l 10,0 0,10 -10,0 z M 50,100 l 10,0 0,10 -10,0 z M 60,100 l 10,0 0,10 -10,0 z M 80,100 l 10,0 0,10 -10,0 z M 90,100 l 10,0 0,10 -10,0 z M 110,100 l 10,0 0,10 -10,0 z M 120,100 l 10,0 0,10 -10,0 z M 150,100 l 10,0 0,10 -10,0 z M 170,100 l 10,0 0,10 -10,0 z M 190,100 l 10,0 0,10 -10,0 z M 210,100 l 10,0 0,10 -10,0 z M 220,100 l 10,0 0,10 -10,0 z M 240,100 l 10,0 0,10 -10,0 z M 0,110 l 10,0 0,10 -10,0 z M 30,110 l 10,0 0,10 -10,0 z M 70,110 l 10,0 0,10 -10,0 z M 80,110 l 10,0 0,10 -10,0 z M 90,110 l 10,0 0,10 -10,0 z M 100,110 l 10,0 0,10 -10,0 z M 110,110 l 10,0 0,10 -10,0 z M 140,110 l 10,0 0,10 -10,0 z M 150,110 l 10,0 0,10 -10,0 z M 200,110 l 10,0 0,10 -10,0 z M 230,110 l 10,0 0,10 -10,0 z M 10,120 l 10,0 0,10 -10,0 z M 20,120 l 10,0 0,10 -10,0 z M 60,120 l 10,0 0,10 -10,0 z M 70,120 l 10,0 0,10 -10,0 z M 80,120 l 10,0 0,10 -10,0 z M 90,120 l 10,0 0,10 -10,0 z M 110,120 l 10,0 0,10 -10,0 z M 170,120 l 10,0 0,10 -10,0 z M 180,120 l 10,0 0,10 -10,0 z M 200,120 l 10,0 0,10 -10,0 z M 210,120 l 10,0 0,10 -10,0 z M 220,120 l 10,0 0,10 -10,0 z M 240,120 l 10,0 0,10 -10,0 z M 0,130 l 10,0 0,10 -10,0 z M 20,130 l 10,0 0,10 -10,0 z M 30,130 l 10,0 0,10 -10,0 z M 50,130 l 10,0 0,10 -10,0 z M 90,130 l 10,0 0,10 -10,0 z M 100,130 l 10,0 0,10 -10,0 z M 120,130 l 10,0 0,10 -10,0 z M 130,130 l 10,0 0,10 -10,0 z M 140,130 l 10,0 0,10 -10,0 z M 160,130 l 10,0 0,10 -10,0 z M 170,130 l 10,0 0,10 -10,0 z M 190,130 l 10,0 0,10 -10,0 z M 220,130 l 10,0 0,10 -10,0 z M 0,140 l 10,0 0,10 -10,0 z M 20,140 l 10,0 0,10 -10,0 z M 60,140 l 10,0 0,10 -10,0 z M 70,140 l 10,0 0,10 -10,0 z M 90,140 l 10,0 0,10 -10,0 z M 100,140 l 10,0 0,10 -10,0 z M 130,140 l 10,0 0,10 -10,0 z M 140,140 l 10,0 0,10 -10,0 z M 150,140 l 10,0 0,10 -10,0 z M 160,140 l 10,0 0,10 -10,0 z M 200,140 l 10,0 0,10 -10,0 z M 210,140 l 10,0 0,10 -10,0 z M 220,140 l 10,0 0,10 -10,0 z M 230,140 l 10,0 0,10 -10,0 z M 240,140 l 10,0 0,10 -10,0 z M 0,150 l 10,0 0,10 -10,0 z M 30,150 l 10,0 0,10 -10,0 z M 40,150 l 10,0 0,10 -10,0 z M 90,150 l 10,0 0,10 -10,0 z M 100,150 l 10,0 0,10 -10,0 z M 120,150 l 10,0 0,10 -10,0 z M 130,150 l 10,0 0,10 -10,0 z M 160,150 l 10,0 0,10 -10,0 z M 180,150 l 10,0 0,10 -10,0 z M 230,150 l 10,0 0,10 -10,0 z M 0,160 l 10,0 0,10 -10,0 z M 20,160 l 10,0 0,10 -10,0 z M 60,160 l 10,0 0,10 -10,0 z M 70,160 l 10,0 0,10 -10,0 z M 90,160 l 10,0 0,10 -10,0 z M 120,160 l 10,0 0,10 -10,0 z M 140,160 l 10,0 0,10 -10,0 z M 160,160 l 10,0 0,10 -10,0 z M 170,160 l 10,0 0,10 -10,0 z M 180,160 l 10,0 0,10 -10,0 z M 190,160 l 10,0 0,10 -10,0 z M 200,160 l 10,0 0,10 -10,0 z M 210,160 l 10,0 0,10 -10,0 z M 220,160 l 10,0 0,10 -10,0 z M 240,160 l 10,0 0,10 -10,0 z M 80,170 l 10,0 0,10 -10,0 z M 100,170 l 10,0 0,10 -10,0 z M 150,170 l 10,0 0,10 -10,0 z M 160,170 l 10,0 0,10 -10,0 z M 200,170 l 10,0 0,10 -10,0 z M 210,170 l 10,0 0,10 -10,0 z M 220,170 l 10,0 0,10 -10,0 z M 230,170 l 10,0 0,10 -10,0 z M 0,180 l 10,0 0,10 -10,0 z M 10,180 l 10,0 0,10 -10,0 z M 20,180 l 10,0 0,10 -10,0 z M 30,180 l 10,0 0,10 -10,0 z M 40,180 l 10,0 0,10 -10,0 z M 50,180 l 10,0 0,10 -10,0 z M 60,180 l 10,0 0,10 -10,0 z M 80,180 l 10,0 0,10 -10,0 z M 100,180 l 10,0 0,10 -10,0 z M 110,180 l 10,0 0,10 -10,0 z M 120,180 l 10,0 0,10 -10,0 z M 160,180 l 10,0 0,10 -10,0 z M 180,180 l 10,0 0,10 -10,0 z M 200,180 l 10,0 0,10 -10,0 z M 230,180 l 10,0 0,10 -10,0 z M 240,180 l 10,0 0,10 -10,0 z M 0,190 l 10,0 0,10 -10,0 z M 60,190 l 10,0 0,10 -10,0 z M 90,190 l 10,0 0,10 -10,0 z M 100,190 l 10,0 0,10 -10,0 z M 110,190 l 10,0 0,10 -10,0 z M 140,190 l 10,0 0,10 -10,0 z M 150,190 l 10,0 0,10 -10,0 z M 160,190 l 10,0 0,10 -10,0 z M 200,190 l 10,0 0,10 -10,0 z M 0,200 l 10,0 0,10 -10,0 z M 20,200 l 10,0 0,10 -10,0 z M 30,200 l 10,0 0,10 -10,0 z M 40,200 l 10,0 0,10 -10,0 z M 60,200 l 10,0 0,10 -10,0 z M 80,200 l 10,0 0,10 -10,0 z M 90,200 l 10,0 0,10 -10,0 z M 100,200 l 10,0 0,10 -10,0 z M 110,200 l 10,0 0,10 -10,0 z M 150,200 l 10,0 0,10 -10,0 z M 160,200 l 10,0 0,10 -10,0 z M 170,200 l 10,0 0,10 -10,0 z M 180,200 l 10,0 0,10 -10,0 z M 190,200 l 10,0 0,10 -10,0 z M 200,200 l 10,0 0,10 -10,0 z M 220,200 l 10,0 0,10 -10,0 z M 240,200 l 10,0 0,10 -10,0 z M 0,210 l 10,0 0,10 -10,0 z M 20,210 l 10,0 0,10 -10,0 z M 30,210 l 10,0 0,10 -10,0 z M 40,210 l 10,0 0,10 -10,0 z M 60,210 l 10,0 0,10 -10,0 z M 80,210 l 10,0 0,10 -10,0 z M 100,210 l 10,0 0,10 -10,0 z M 120,210 l 10,0 0,10 -10,0 z M 130,210 l 10,0 0,10 -10,0 z M 140,210 l 10,0 0,10 -10,0 z M 150,210 l 10,0 0,10 -10,0 z M 160,210 l 10,0 0,10 -10,0 z M 170,210 l 10,0 0,10 -10,0 z M 180,210 l 10,0 0,10 -10,0 z M 190,210 l 10,0 0,10 -10,0 z M 200,210 l 10,0 0,10 -10,0 z M 230,210 l 10,0 0,10 -10,0 z M 240,210 l 10,0 0,10 -10,0 z M 0,220 l 10,0 0,10 -10,0 z M 20,220 l 10,0 0,10 -10,0 z M 30,220 l 10,0 0,10 -10,0 z M 40,220 l 10,0 0,10 -10,0 z M 60,220 l 10,0 0,10 -10,0 z M 80,220 l 10,0 0,10 -10,0 z M 90,220 l 10,0 0,10 -10,0 z M 130,220 l 10,0 0,10 -10,0 z M 140,220 l 10,0 0,10 -10,0 z M 150,220 l 10,0 0,10 -10,0 z M 160,220 l 10,0 0,10 -10,0 z M 170,220 l 10,0 0,10 -10,0 z M 190,220 l 10,0 0,10 -10,0 z M 210,220 l 10,0 0,10 -10,0 z M 220,220 l 10,0 0,10 -10,0 z M 240,220 l 10,0 0,10 -10,0 z M 0,230 l 10,0 0,10 -10,0 z M 60,230 l 10,0 0,10 -10,0 z M 80,230 l 10,0 0,10 -10,0 z M 90,230 l 10,0 0,10 -10,0 z M 100,230 l 10,0 0,10 -10,0 z M 120,230 l 10,0 0,10 -10,0 z M 130,230 l 10,0 0,10 -10,0 z M 160,230 l 10,0 0,10 -10,0 z M 190,230 l 10,0 0,10 -10,0 z M 240,230 l 10,0 0,10 -10,0 z M 0,240 l 10,0 0,10 -10,0 z M 10,240 l 10,0 0,10 -10,0 z M 20,240 l 10,0 0,10 -10,0 z M 30,240 l 10,0 0,10 -10,0 z M 40,240 l 10,0 0,10 -10,0 z M 50,240 l 10,0 0,10 -10,0 z M 60,240 l 10,0 0,10 -10,0 z M 80,240 l 10,0 0,10 -10,0 z M 100,240 l 10,0 0,10 -10,0 z M 120,240 l 10,0 0,10 -10,0 z M 140,240 l 10,0 0,10 -10,0 z M 170,240 l 10,0 0,10 -10,0 z M 180,240 l 10,0 0,10 -10,0 z M 190,240 l 10,0 0,10 -10,0 z M 210,240 l 10,0 0,10 -10,0 z M 220,240 l 10,0 0,10 -10,0 z M 230,240 l 10,0 0,10 -10,0 z M 240,240 l 10,0 0,10 -10,0 z " />
	</g>
</svg>
